# xmcd CD database file
#
# Track frame offsets:
#	150
#	10280
#	23782
#	36037
#	47927
#	57635
#	67925
#	82390
#	94535
#	108600
#	121137
#	133277
#	145370
#	157382
#	170252
#	180085
#	190750
#	202160
#	211850
#	225795
#
# Disc length: 3171 seconds
#
# Revision: 3
# Processed by: cddbd v1.5.2PL0 Copyright (c) Steve Scherf et al.
# Submitted via: Feurio! 1.68 - http://www.feurio.com
#
DISCID=1b0c6114
DTITLE=Various Artist - Die groﬂe Parade der Country und Western Hits CD3_3
DYEAR=1900
DGENRE=Country
TTITLE0=Bobby Bare - Help me make it through the Nigth
TTITLE1=Freddy Quinn - Home on the range
TTITLE2=Rick Pilgreen - How come i took so long to say Goodbye
TTITLE3=Billy Grammer - Papa and Mama
TTITLE4=Norville Dollar - What makes me feel so blue
TTITLE5=Dave Dudley - Truck Driving son-of-a-Gun
TTITLE6=Bobby Bare - Leaving on a Jetplane
TTITLE7=Ferlin Husky - Out of the clear blue Sky
TTITLE8=Fredy Quinn - Take me home, Country Roads
TTITLE9=Bobby Bare - Come Sundown
TTITLE10=Dave Dudley - Rolin`on - we gone
TTITLE11=Freddy Quinn - On top of old Smoky
TTITLE12=Dave Dudley - South bound and down
TTITLE13=Johnny Hill - Oh my Darlin`Clementine
TTITLE14=Ferlin Husky - Gone
TTITLE15=George Kent - You wouldn`t want me now
TTITLE16=Bobby Bare - That`s how i got to Memphis
TTITLE17=Dave Dudley - Rolling on your Track
TTITLE18=George Kent - Doogie Ray
TTITLE19=Johnny Hill - The yellow Rose of Texas
EXTD=
EXTT0=
EXTT1=
EXTT2=
EXTT3=
EXTT4=
EXTT5=
EXTT6=
EXTT7=
EXTT8=
EXTT9=
EXTT10=
EXTT11=
EXTT12=
EXTT13=
EXTT14=
EXTT15=
EXTT16=
EXTT17=
EXTT18=
EXTT19=
PLAYORDER=
